<svg width="81" height="105" viewBox="0 0 81 105" fill="none" xmlns="http://www.w3.org/2000/svg">
<path d="M31.9785 17.723C32.3972 17.723 32.7915 17.5272 33.0427 17.1944L40.8742 6.82205L48.7058 17.1944C48.957 17.5272 49.3512 17.723 49.7699 17.723H54.0099C54.558 17.723 54.8709 17.1014 54.542 16.6659L42.6093 0.861733C41.7417 -0.287244 40.0067 -0.287244 39.1392 0.861733L27.2064 16.6659C26.8776 17.1014 27.1905 17.723 27.7385 17.723H31.9785Z" fill="#121212"/>
<path d="M8.93725 78.6547C8.7191 78.1662 8.23613 77.8432 7.69809 77.8432H5.12949C4.20976 77.8432 3.56877 78.7482 3.91757 79.5936C9.67956 93.558 23.2499 104.27 40.8742 104.27C58.4985 104.27 72.0689 93.558 77.8309 79.5936C78.1797 78.7482 77.5387 77.8432 76.619 77.8432H74.0504C73.5123 77.8432 73.0294 78.1662 72.8112 78.6547C67.56 90.4152 55.9012 99.3147 40.8742 99.3147C25.8473 99.3147 14.1884 90.4152 8.93725 78.6547Z" fill="#121212"/>
<path d="M1.5702 45.1404C1.40393 45.1404 1.26033 45.0804 1.1394 44.9603C1.01847 44.8401 0.958008 44.6975 0.958008 44.5323V29.9827C0.958008 29.8176 1.01847 29.6749 1.1394 29.5548C1.26033 29.4347 1.40393 29.3746 1.5702 29.3746H8.10026C9.52116 29.3746 10.7909 29.6149 11.9095 30.0954C13.028 30.5608 13.9199 31.2515 14.585 32.1674C15.2652 33.0834 15.628 34.217 15.6733 35.5683C15.7036 36.214 15.7187 36.7846 15.7187 37.2801C15.7187 37.7605 15.7036 38.3086 15.6733 38.9242C15.6129 40.3356 15.2652 41.5068 14.6303 42.4377C13.9955 43.3536 13.1263 44.0368 12.0228 44.4873C10.9345 44.9227 9.66476 45.1404 8.21363 45.1404H1.5702ZM6.62647 40.7485H8.10026C8.43281 40.7485 8.72757 40.6885 8.98454 40.5684C9.25663 40.4332 9.47581 40.2305 9.64209 39.9602C9.80836 39.69 9.89906 39.3446 9.91417 38.9242C9.9444 38.4888 9.95952 38.0984 9.95952 37.753C9.97463 37.4077 9.97463 37.0623 9.95952 36.717C9.95952 36.3566 9.9444 35.9738 9.91417 35.5683C9.88394 34.9377 9.67987 34.4798 9.30198 34.1945C8.9392 33.9092 8.50084 33.7665 7.9869 33.7665H6.62647V40.7485Z" fill="#121212"/>
<path d="M18.3541 45.1404C18.1879 45.1404 18.0443 45.0804 17.9233 44.9603C17.8024 44.8401 17.742 44.6975 17.742 44.5323V29.9827C17.742 29.8176 17.8024 29.6749 17.9233 29.5548C18.0443 29.4347 18.1879 29.3746 18.3541 29.3746H25.0656C27.2423 29.3746 28.9428 29.8626 30.1672 30.8386C31.3916 31.8146 32.0038 33.1509 32.0038 34.8476C32.0038 35.8536 31.7695 36.732 31.3009 37.4828C30.8474 38.2185 30.2655 38.8116 29.555 39.262L32.3439 44.3972C32.3892 44.4873 32.4119 44.5699 32.4119 44.6449C32.4119 44.7801 32.359 44.9002 32.2532 45.0053C32.1625 45.0954 32.0491 45.1404 31.9131 45.1404H27.265C26.9626 45.1404 26.7359 45.0654 26.5847 44.9152C26.4336 44.7651 26.3353 44.6374 26.29 44.5323L24.34 40.2305H23.4104V44.5323C23.4104 44.6975 23.35 44.8401 23.229 44.9603C23.1081 45.0804 22.9645 45.1404 22.7982 45.1404H18.3541ZM23.4104 35.9512H25.0656C25.4133 35.9512 25.6702 35.8386 25.8365 35.6134C26.0179 35.3731 26.1086 35.1029 26.1086 34.8026C26.1086 34.5023 26.0255 34.2245 25.8592 33.9692C25.708 33.699 25.4435 33.5638 25.0656 33.5638H23.4104V35.9512Z" fill="#121212"/>
<path d="M41.1594 45.3657C39.6781 45.3657 38.3781 45.1404 37.2595 44.69C36.1561 44.2395 35.2793 43.5639 34.6294 42.663C33.9945 41.747 33.6468 40.6209 33.5864 39.2846C33.5712 38.6689 33.5637 38.0158 33.5637 37.3251C33.5637 36.6344 33.5712 35.9662 33.5864 35.3206C33.6468 33.9993 33.9945 32.8806 34.6294 31.9647C35.2642 31.0488 36.1409 30.3506 37.2595 29.8701C38.3781 29.3897 39.6781 29.1494 41.1594 29.1494C42.6408 29.1494 43.9407 29.3897 45.0593 29.8701C46.1779 30.3506 47.0546 31.0488 47.6895 31.9647C48.3395 32.8806 48.6871 33.9993 48.7325 35.3206C48.7627 35.9662 48.7778 36.6344 48.7778 37.3251C48.7778 38.0158 48.7627 38.6689 48.7325 39.2846C48.672 40.6209 48.3168 41.747 47.6668 42.663C47.0319 43.5639 46.1552 44.2395 45.0366 44.69C43.9332 45.1404 42.6408 45.3657 41.1594 45.3657ZM41.1594 40.9738C41.6582 40.9738 42.0588 40.8311 42.3611 40.5458C42.6634 40.2455 42.8222 39.7801 42.8373 39.1494C42.8675 38.5038 42.8826 37.8656 42.8826 37.235C42.8826 36.6044 42.8675 35.9813 42.8373 35.3656C42.8222 34.9452 42.739 34.5999 42.5879 34.3296C42.4518 34.0593 42.2629 33.8641 42.021 33.744C41.7792 33.6089 41.492 33.5413 41.1594 33.5413C40.842 33.5413 40.5548 33.6089 40.2978 33.744C40.056 33.8641 39.8594 34.0593 39.7083 34.3296C39.5722 34.5999 39.4967 34.9452 39.4816 35.3656C39.4664 35.9813 39.4589 36.6044 39.4589 37.235C39.4589 37.8656 39.4664 38.5038 39.4816 39.1494C39.5118 39.7801 39.6705 40.2455 39.9577 40.5458C40.26 40.8311 40.6606 40.9738 41.1594 40.9738Z" fill="#121212"/>
<path d="M51.4349 45.1404C51.2686 45.1404 51.125 45.0804 51.0041 44.9603C50.8832 44.8401 50.8227 44.6975 50.8227 44.5323V29.9827C50.8227 29.8176 50.8832 29.6749 51.0041 29.5548C51.125 29.4347 51.2686 29.3746 51.4349 29.3746H58.3051C59.6806 29.3746 60.8748 29.5773 61.8876 29.9827C62.9154 30.3731 63.709 30.9812 64.2683 31.8071C64.8427 32.6179 65.1299 33.6464 65.1299 34.8927C65.1299 36.1389 64.8427 37.1599 64.2683 37.9557C63.709 38.7365 62.9154 39.3146 61.8876 39.69C60.8748 40.0503 59.6806 40.2305 58.3051 40.2305H56.7179V44.5323C56.7179 44.6975 56.6575 44.8401 56.5365 44.9603C56.4156 45.0804 56.272 45.1404 56.1057 45.1404H51.4349ZM56.6045 36.0638H58.1917C58.4336 36.0638 58.6679 35.9737 58.8946 35.7936C59.1213 35.5984 59.2347 35.2831 59.2347 34.8476C59.2347 34.5623 59.1591 34.2771 59.008 33.9918C58.8719 33.7065 58.5998 33.5638 58.1917 33.5638H56.6045V36.0638Z" fill="#121212"/>
<path d="M73.4303 45.3657C71.7524 45.3657 70.3693 45.1404 69.281 44.69C68.1926 44.2395 67.3764 43.6464 66.8322 42.9107C66.288 42.175 66.0008 41.3942 65.9706 40.5684C65.9706 40.4332 66.016 40.3206 66.1067 40.2305C66.2125 40.1254 66.3334 40.0729 66.4694 40.0729H70.7775C71.0193 40.0729 71.2007 40.1104 71.3216 40.1855C71.4577 40.2455 71.6013 40.3356 71.7524 40.4557C71.9036 40.5608 72.0548 40.6584 72.2059 40.7485C72.3722 40.8236 72.5536 40.8837 72.7501 40.9287C72.9617 40.9587 73.1884 40.9738 73.4303 40.9738C73.9442 40.9738 74.3524 40.9212 74.6547 40.8161C74.9721 40.696 75.1308 40.5383 75.1308 40.3431C75.1308 40.1629 75.0401 40.0128 74.8587 39.8927C74.6925 39.7726 74.3977 39.6674 73.9745 39.5774C73.5512 39.4723 72.9617 39.3747 72.2059 39.2846C71.0118 39.1194 69.9763 38.8416 69.0996 38.4512C68.2229 38.0608 67.5427 37.5278 67.059 36.8521C66.5904 36.1614 66.3561 35.3206 66.3561 34.3296C66.3561 33.3086 66.6433 32.4077 67.2177 31.6269C67.8072 30.8461 68.6159 30.238 69.6438 29.8026C70.6868 29.3671 71.896 29.1494 73.2716 29.1494C74.4053 29.1494 75.4105 29.2996 76.2872 29.5999C77.1639 29.8852 77.9046 30.268 78.5092 30.7485C79.1139 31.214 79.5749 31.717 79.8923 32.2575C80.2098 32.7981 80.3761 33.3161 80.3912 33.8116C80.3912 33.9467 80.3383 34.0668 80.2324 34.1719C80.1418 34.262 80.0359 34.3071 79.915 34.3071H75.3802C75.1686 34.3071 74.9948 34.2771 74.8587 34.217C74.7378 34.1569 74.6093 34.0668 74.4733 33.9467C74.3977 33.8716 74.2541 33.7891 74.0425 33.699C73.846 33.5939 73.589 33.5413 73.2716 33.5413C72.8937 33.5413 72.614 33.6014 72.4326 33.7215C72.2664 33.8266 72.1832 33.9767 72.1832 34.1719C72.1832 34.3071 72.2513 34.4347 72.3873 34.5548C72.5233 34.6749 72.7728 34.7801 73.1355 34.8701C73.4983 34.9602 74.0198 35.0503 74.7 35.1404C76.2116 35.3206 77.4209 35.6134 78.3279 36.0188C79.2499 36.4092 79.915 36.9347 80.3231 37.5954C80.7464 38.256 80.958 39.0744 80.958 40.0503C80.958 41.1464 80.6255 42.0924 79.9604 42.8882C79.3104 43.684 78.4185 44.2996 77.2849 44.735C76.1512 45.1554 74.8663 45.3657 73.4303 45.3657Z" fill="#121212"/>
<path d="M15.3887 67.8282C13.9376 67.8282 12.6527 67.618 11.5342 67.1975C10.4156 66.7771 9.52375 66.1164 8.85865 65.2155C8.20867 64.3146 7.85345 63.151 7.79298 61.7245C7.77787 61.1089 7.77031 60.4483 7.77031 59.7426C7.77031 59.0369 7.77787 58.3612 7.79298 57.7155C7.85345 56.3191 8.21623 55.1705 8.88133 54.2696C9.56154 53.3687 10.4609 52.7005 11.5795 52.2651C12.7132 51.8296 13.9829 51.6119 15.3887 51.6119C16.3561 51.6119 17.2858 51.7245 18.1776 51.9498C19.0846 52.16 19.9008 52.4978 20.6264 52.9633C21.3519 53.4287 21.9263 54.0293 22.3496 54.7651C22.7879 55.4858 23.0147 56.3567 23.0298 57.3777C23.0298 57.5128 22.9769 57.6329 22.8711 57.7381C22.7804 57.8281 22.667 57.8732 22.531 57.8732H17.9055C17.6637 57.8732 17.4823 57.8281 17.3613 57.7381C17.2555 57.6329 17.1573 57.4603 17.0666 57.22C16.9003 56.7396 16.6736 56.4167 16.3864 56.2516C16.0992 56.0864 15.7591 56.0038 15.366 56.0038C14.8672 56.0038 14.4666 56.1389 14.1643 56.4092C13.8771 56.6645 13.7184 57.1375 13.6882 57.8281C13.6428 59.0594 13.6428 60.3206 13.6882 61.6119C13.7184 62.3026 13.8771 62.7831 14.1643 63.0534C14.4666 63.3086 14.8672 63.4363 15.366 63.4363C15.7591 63.4363 16.0992 63.3462 16.3864 63.166C16.6887 62.9858 16.9154 62.6705 17.0666 62.22C17.1422 61.9648 17.2404 61.7921 17.3613 61.702C17.4823 61.6119 17.6637 61.5669 17.9055 61.5669H22.531C22.667 61.5669 22.7804 61.6194 22.8711 61.7245C22.9769 61.8146 23.0298 61.9272 23.0298 62.0624C23.0147 63.0834 22.7879 63.9618 22.3496 64.6975C21.9263 65.4182 21.3519 66.0113 20.6264 66.4768C19.9008 66.9423 19.0846 67.2876 18.1776 67.5128C17.2858 67.7231 16.3561 67.8282 15.3887 67.8282Z" fill="#121212"/>
<path d="M23.8383 67.6029C23.7022 67.6029 23.5813 67.5579 23.4755 67.4678C23.3848 67.3627 23.3394 67.2426 23.3394 67.1074C23.3394 67.0474 23.347 66.9948 23.3621 66.9498L28.4184 52.5804C28.4637 52.4152 28.5695 52.2501 28.7358 52.0849C28.9021 51.9197 29.1364 51.8371 29.4387 51.8371H34.3589C34.6612 51.8371 34.8955 51.9197 35.0618 52.0849C35.2281 52.2501 35.3339 52.4152 35.3792 52.5804L40.4355 66.9498C40.4506 66.9948 40.4582 67.0474 40.4582 67.1074C40.4582 67.2426 40.4053 67.3627 40.2995 67.4678C40.2088 67.5579 40.0954 67.6029 39.9594 67.6029H35.7647C35.4775 67.6029 35.2659 67.5429 35.1298 67.4228C35.0089 67.2876 34.9258 67.16 34.8804 67.0399L34.3362 65.5534H29.4614L28.9172 67.0399C28.8719 67.16 28.7887 67.2876 28.6678 67.4228C28.5469 67.5429 28.3352 67.6029 28.0329 67.6029H23.8383ZM30.6177 61.1615H33.1799L31.8875 56.9723L30.6177 61.1615Z" fill="#121212"/>
<path d="M42.3148 67.6029C42.1485 67.6029 42.0049 67.5429 41.884 67.4228C41.763 67.3026 41.7026 67.16 41.7026 66.9948V52.4452C41.7026 52.2801 41.763 52.1374 41.884 52.0173C42.0049 51.8972 42.1485 51.8371 42.3148 51.8371H49.0262C51.2029 51.8371 52.9035 52.3251 54.1278 53.3011C55.3522 54.2771 55.9644 55.6134 55.9644 57.3101C55.9644 58.3161 55.7301 59.1945 55.2615 59.9453C54.8081 60.681 54.2261 61.2741 53.5156 61.7245L56.3045 66.8597C56.3499 66.9498 56.3726 67.0324 56.3726 67.1074C56.3726 67.2426 56.3196 67.3627 56.2138 67.4678C56.1231 67.5579 56.0098 67.6029 55.8737 67.6029H51.2256C50.9233 67.6029 50.6965 67.5279 50.5454 67.3777C50.3942 67.2276 50.296 67.0999 50.2506 66.9948L48.3007 62.693H47.371V66.9948C47.371 67.16 47.3106 67.3026 47.1897 67.4228C47.0687 67.5429 46.9251 67.6029 46.7588 67.6029H42.3148ZM47.371 58.4137H49.0262C49.3739 58.4137 49.6309 58.3011 49.7971 58.0759C49.9785 57.8356 50.0692 57.5654 50.0692 57.2651C50.0692 56.9648 49.9861 56.687 49.8198 56.4317C49.6687 56.1615 49.4041 56.0263 49.0262 56.0263H47.371V58.4137Z" fill="#121212"/>
<path d="M58.678 67.6029C58.5117 67.6029 58.3681 67.5429 58.2472 67.4228C58.1263 67.3026 58.0658 67.16 58.0658 66.9948V52.4452C58.0658 52.2801 58.1263 52.1374 58.2472 52.0173C58.3681 51.8972 58.5117 51.8371 58.678 51.8371H70.3097C70.476 51.8371 70.6196 51.8972 70.7405 52.0173C70.8614 52.1374 70.9219 52.2801 70.9219 52.4452V55.6209C70.9219 55.7861 70.8614 55.9287 70.7405 56.0489C70.6196 56.169 70.476 56.229 70.3097 56.229H63.5075V57.648H69.8109C69.9771 57.648 70.1207 57.708 70.2417 57.8281C70.3626 57.9483 70.4231 58.0909 70.4231 58.2561V61.184C70.4231 61.3492 70.3626 61.4918 70.2417 61.6119C70.1207 61.7321 69.9771 61.7921 69.8109 61.7921H63.5075V63.211H70.4911C70.6574 63.211 70.801 63.2711 70.9219 63.3912C71.0428 63.5113 71.1033 63.654 71.1033 63.8191V66.9948C71.1033 67.16 71.0428 67.3026 70.9219 67.4228C70.801 67.5429 70.6574 67.6029 70.4911 67.6029H58.678Z" fill="#121212"/>
</svg>
