<svg width="28" height="28" viewBox="0 0 28 28" fill="none" xmlns="http://www.w3.org/2000/svg">
<circle cx="14" cy="14" r="13.5" fill="#FF2323" fill-opacity="0.1" stroke="#FF2323"/>
<path d="M13.429 16.284C13.3356 16.284 13.2563 16.256 13.191 16.2C13.1256 16.1347 13.093 16.0507 13.093 15.948V9.536C13.093 9.44267 13.1256 9.36333 13.191 9.298C13.2563 9.23267 13.3356 9.2 13.429 9.2H14.563C14.6656 9.2 14.745 9.23267 14.801 9.298C14.8663 9.36333 14.899 9.44267 14.899 9.536V15.948C14.899 16.0507 14.8663 16.1347 14.801 16.2C14.745 16.256 14.6656 16.284 14.563 16.284H13.429ZM13.345 19C13.2423 19 13.1583 18.9673 13.093 18.902C13.037 18.8367 13.009 18.7573 13.009 18.664V17.362C13.009 17.2593 13.037 17.1753 13.093 17.11C13.1583 17.0447 13.2423 17.012 13.345 17.012H14.647C14.7496 17.012 14.8336 17.0447 14.899 17.11C14.9643 17.1753 14.997 17.2593 14.997 17.362V18.664C14.997 18.7573 14.9643 18.8367 14.899 18.902C14.8336 18.9673 14.7496 19 14.647 19H13.345Z" fill="#FF2323"/>
</svg>
