<svg xmlns="http://www.w3.org/2000/svg" width="88" height="46" fill="none"><path fill="#121212" d="M5.304 19.71a.58.58 0 0 1-.424-.177.572.572 0 0 1-.178-.42V4.819c0-.163.06-.303.178-.42a.58.58 0 0 1 .424-.178h6.415c1.396 0 2.644.236 3.742.708 1.1.458 1.976 1.136 2.629 2.036.668.9 1.025 2.014 1.07 3.341.029.635.044 1.195.044 1.682 0 .472-.015 1.01-.045 1.615-.06 1.387-.4 2.537-1.024 3.452-.624.9-1.478 1.571-2.562 2.014-1.07.428-2.317.641-3.742.641H5.304Zm4.967-4.314h1.448c.327 0 .616-.06.869-.177.267-.133.482-.332.646-.598.163-.265.252-.605.267-1.018.03-.428.045-.811.045-1.15.014-.34.014-.679 0-1.018 0-.354-.015-.73-.045-1.129-.03-.62-.23-1.07-.601-1.35-.357-.28-.787-.42-1.292-.42H10.27v6.86ZM21.793 19.71a.58.58 0 0 1-.423-.177.573.573 0 0 1-.178-.42V4.819c0-.163.059-.303.178-.42a.58.58 0 0 1 .423-.178h6.594c2.138 0 3.809.48 5.012 1.439 1.203.958 1.804 2.271 1.804 3.938 0 .989-.23 1.851-.69 2.59a5.381 5.381 0 0 1-1.716 1.747l2.74 5.045c.045.089.067.17.067.244 0 .132-.052.25-.156.354a.455.455 0 0 1-.334.132h-4.566c-.298 0-.52-.073-.669-.22-.148-.148-.245-.274-.29-.377l-1.915-4.226h-.913v4.226c0 .162-.06.302-.179.42a.58.58 0 0 1-.423.177h-4.366Zm4.968-9.028h1.626c.341 0 .594-.11.757-.332.178-.236.267-.501.267-.796 0-.295-.081-.568-.245-.819-.148-.265-.408-.398-.78-.398h-1.625v2.345ZM44.198 19.932c-1.455 0-2.732-.222-3.831-.664-1.084-.443-1.946-1.107-2.584-1.992-.624-.9-.966-2.006-1.025-3.319a84.477 84.477 0 0 1 0-3.894c.06-1.298.4-2.397 1.025-3.297.623-.9 1.485-1.586 2.584-2.058C41.466 4.236 42.743 4 44.198 4c1.456 0 2.733.236 3.832.708 1.099.472 1.96 1.158 2.584 2.058.638.9.98 1.999 1.024 3.297a42.13 42.13 0 0 1 0 3.894c-.06 1.313-.408 2.42-1.047 3.32-.623.884-1.485 1.548-2.584 1.99-1.084.443-2.353.665-3.809.665Zm0-4.315c.49 0 .884-.14 1.18-.42.298-.296.454-.753.468-1.372.03-.635.045-1.262.045-1.881 0-.62-.015-1.232-.044-1.837-.015-.413-.097-.752-.245-1.018a1.238 1.238 0 0 0-.557-.575c-.238-.133-.52-.2-.847-.2a1.79 1.79 0 0 0-.846.2c-.238.118-.431.31-.58.575-.133.266-.207.605-.222 1.018a74.584 74.584 0 0 0 0 3.718c.03.62.185 1.076.468 1.371.297.28.69.42 1.18.42ZM54.293 19.71a.58.58 0 0 1-.423-.177.573.573 0 0 1-.178-.42V4.819c0-.163.06-.303.178-.42a.58.58 0 0 1 .423-.178h6.75c1.351 0 2.525.2 3.52.598 1.01.383 1.789.98 2.338 1.792.565.797.847 1.807.847 3.031 0 1.225-.282 2.228-.847 3.01-.549.767-1.329 1.335-2.338 1.704-.995.354-2.169.53-3.52.53h-1.56v4.227c0 .162-.059.302-.178.42a.58.58 0 0 1-.423.177h-4.589Zm5.08-8.917h1.559c.237 0 .467-.088.69-.265.223-.192.334-.502.334-.93 0-.28-.074-.56-.223-.84-.133-.28-.4-.421-.801-.421h-1.56v2.456ZM75.903 19.932c-1.649 0-3.008-.222-4.077-.664-1.07-.443-1.871-1.025-2.406-1.748-.534-.723-.816-1.49-.846-2.301 0-.133.044-.244.133-.332a.492.492 0 0 1 .357-.155h4.232c.238 0 .416.037.535.11.134.06.275.148.423.266.149.103.297.2.446.288.163.073.341.132.534.177.208.03.431.044.669.044.505 0 .906-.052 1.203-.155.311-.118.467-.273.467-.465 0-.177-.089-.324-.267-.442-.163-.118-.453-.221-.869-.31-.415-.103-.995-.2-1.737-.288-1.173-.162-2.19-.435-3.052-.818-.861-.384-1.53-.908-2.005-1.571-.46-.679-.69-1.505-.69-2.479 0-1.003.282-1.888.846-2.655.58-.767 1.374-1.365 2.384-1.792C73.207 4.214 74.395 4 75.747 4c1.114 0 2.101.148 2.962.443.862.28 1.59.656 2.183 1.128.595.457 1.047.952 1.36 1.483.311.53.475 1.04.49 1.526 0 .133-.053.251-.157.354a.429.429 0 0 1-.311.133h-4.456c-.207 0-.378-.03-.512-.088a1.786 1.786 0 0 1-.379-.266c-.074-.074-.215-.155-.423-.243-.193-.104-.445-.155-.757-.155-.371 0-.646.059-.825.177a.494.494 0 0 0-.245.442c0 .133.067.259.201.377s.379.22.735.31c.356.088.869.176 1.537.265 1.485.177 2.673.465 3.564.863.906.383 1.56.9 1.96 1.549.416.649.624 1.453.624 2.412 0 1.076-.326 2.006-.98 2.788-.638.781-1.515 1.386-2.628 1.814-1.114.413-2.376.62-3.787.62ZM18.88 42c-1.426 0-2.688-.206-3.787-.62-1.1-.413-1.975-1.062-2.629-1.947-.638-.885-.987-2.028-1.047-3.43a84.937 84.937 0 0 1 0-3.939c.06-1.371.416-2.5 1.07-3.385.668-.885 1.551-1.541 2.65-1.969 1.114-.428 2.361-.642 3.743-.642.95 0 1.863.111 2.74.332a7.592 7.592 0 0 1 2.405.996 5.097 5.097 0 0 1 1.693 1.77c.431.708.654 1.564.669 2.567 0 .133-.052.25-.156.354a.455.455 0 0 1-.335.133h-4.544c-.237 0-.416-.044-.534-.133-.104-.103-.2-.273-.29-.509-.163-.472-.386-.79-.668-.951-.282-.163-.616-.244-1.003-.244-.49 0-.883.133-1.18.398-.282.251-.438.716-.468 1.395a51.766 51.766 0 0 0 0 3.717c.03.678.186 1.15.468 1.416.297.25.69.376 1.18.376.387 0 .72-.088 1.003-.265.297-.177.52-.487.668-.93.074-.25.17-.42.29-.509.118-.088.297-.132.534-.132h4.544c.134 0 .246.051.335.155.104.088.156.199.156.331-.015 1.004-.238 1.867-.669 2.59a5.162 5.162 0 0 1-1.693 1.747 7.983 7.983 0 0 1-2.405 1.018c-.877.207-1.79.31-2.74.31ZM27.18 41.779a.534.534 0 0 1-.355-.133.527.527 0 0 1-.112-.509l4.968-14.117c.044-.162.148-.325.311-.487.164-.162.394-.243.691-.243h4.834c.297 0 .527.08.69.243.164.162.268.325.312.487l4.968 14.117a.486.486 0 0 1-.134.509.455.455 0 0 1-.334.133h-4.121c-.282 0-.49-.06-.624-.177a1.24 1.24 0 0 1-.245-.377l-.534-1.46h-4.79l-.534 1.46a1.241 1.241 0 0 1-.245.377c-.12.118-.327.177-.624.177H27.18Zm6.661-6.329h2.518l-1.27-4.115-1.248 4.115ZM45.333 41.779a.58.58 0 0 1-.423-.177.572.572 0 0 1-.178-.42V26.886c0-.162.06-.302.178-.42a.58.58 0 0 1 .423-.177h6.594c2.138 0 3.809.479 5.012 1.438 1.203.959 1.804 2.272 1.804 3.938 0 .989-.23 1.852-.69 2.59a5.38 5.38 0 0 1-1.715 1.748l2.74 5.044c.044.089.066.17.066.244 0 .133-.052.25-.156.354a.455.455 0 0 1-.334.133h-4.566c-.297 0-.52-.074-.669-.222-.148-.147-.245-.273-.29-.376l-1.915-4.226h-.913v4.226c0 .163-.06.303-.178.42a.58.58 0 0 1-.424.178h-4.366Zm4.968-9.028h1.626c.341 0 .594-.11.757-.332a1.29 1.29 0 0 0 .268-.797 1.47 1.47 0 0 0-.245-.818c-.149-.266-.409-.399-.78-.399H50.3v2.346ZM61.41 41.779a.58.58 0 0 1-.424-.177.572.572 0 0 1-.178-.42V26.886c0-.162.06-.302.178-.42a.58.58 0 0 1 .423-.177h11.428a.58.58 0 0 1 .423.177.573.573 0 0 1 .178.42v3.12c0 .162-.06.302-.178.42a.58.58 0 0 1-.423.177h-6.683v1.394h6.193a.58.58 0 0 1 .423.177.572.572 0 0 1 .178.42v2.877c0 .163-.06.303-.178.42a.58.58 0 0 1-.423.178h-6.193v1.394h6.861a.58.58 0 0 1 .423.177.573.573 0 0 1 .178.42v3.12c0 .163-.059.303-.178.42a.58.58 0 0 1-.423.178H61.409Z"/></svg>