<svg width="89" height="113" viewBox="0 0 89 113" fill="none" xmlns="http://www.w3.org/2000/svg">
<path d="M35.9785 21.723C36.3972 21.723 36.7915 21.5272 37.0427 21.1944L44.8742 10.8221L52.7058 21.1944C52.957 21.5272 53.3512 21.723 53.7699 21.723H58.0099C58.558 21.723 58.8709 21.1014 58.542 20.6659L46.6093 4.86173C45.7417 3.71276 44.0067 3.71276 43.1392 4.86173L31.2064 20.6659C30.8776 21.1014 31.1905 21.723 31.7385 21.723H35.9785Z" fill="#121212"/>
<path d="M12.9372 82.6547C12.7191 82.1662 12.2361 81.8432 11.6981 81.8432H9.12949C8.20976 81.8432 7.56877 82.7482 7.91757 83.5936C13.6796 97.558 27.2499 108.27 44.8742 108.27C62.4985 108.27 76.0689 97.558 81.8309 83.5936C82.1797 82.7482 81.5387 81.8432 80.619 81.8432H78.0504C77.5123 81.8432 77.0294 82.1662 76.8112 82.6547C71.56 94.4152 59.9012 103.315 44.8742 103.315C29.8473 103.315 18.1884 94.4152 12.9372 82.6547Z" fill="#121212"/>
<path d="M5.5702 49.1404C5.40393 49.1404 5.26033 49.0804 5.1394 48.9603C5.01847 48.8401 4.95801 48.6975 4.95801 48.5323V33.9827C4.95801 33.8176 5.01847 33.6749 5.1394 33.5548C5.26033 33.4347 5.40393 33.3746 5.5702 33.3746H12.1003C13.5212 33.3746 14.7909 33.6149 15.9095 34.0954C17.028 34.5608 17.9199 35.2515 18.585 36.1674C19.2652 37.0834 19.628 38.217 19.6733 39.5683C19.7036 40.214 19.7187 40.7846 19.7187 41.2801C19.7187 41.7605 19.7036 42.3086 19.6733 42.9242C19.6129 44.3356 19.2652 45.5068 18.6303 46.4377C17.9955 47.3536 17.1263 48.0368 16.0228 48.4873C14.9345 48.9227 13.6648 49.1404 12.2136 49.1404H5.5702ZM10.6265 44.7485H12.1003C12.4328 44.7485 12.7276 44.6885 12.9845 44.5684C13.2566 44.4332 13.4758 44.2305 13.6421 43.9602C13.8084 43.69 13.8991 43.3446 13.9142 42.9242C13.9444 42.4888 13.9595 42.0984 13.9595 41.753C13.9746 41.4077 13.9746 41.0623 13.9595 40.717C13.9595 40.3566 13.9444 39.9738 13.9142 39.5683C13.8839 38.9377 13.6799 38.4798 13.302 38.1945C12.9392 37.9092 12.5008 37.7665 11.9869 37.7665H10.6265V44.7485Z" fill="#121212"/>
<path d="M22.3541 49.1404C22.1879 49.1404 22.0443 49.0804 21.9233 48.9603C21.8024 48.8401 21.742 48.6975 21.742 48.5323V33.9827C21.742 33.8176 21.8024 33.6749 21.9233 33.5548C22.0443 33.4347 22.1879 33.3746 22.3541 33.3746H29.0656C31.2423 33.3746 32.9428 33.8626 34.1672 34.8386C35.3916 35.8146 36.0038 37.1509 36.0038 38.8476C36.0038 39.8536 35.7695 40.732 35.3009 41.4828C34.8474 42.2185 34.2655 42.8116 33.555 43.262L36.3439 48.3972C36.3892 48.4873 36.4119 48.5699 36.4119 48.6449C36.4119 48.7801 36.359 48.9002 36.2532 49.0053C36.1625 49.0954 36.0491 49.1404 35.9131 49.1404H31.265C30.9626 49.1404 30.7359 49.0654 30.5847 48.9152C30.4336 48.7651 30.3353 48.6374 30.29 48.5323L28.34 44.2305H27.4104V48.5323C27.4104 48.6975 27.35 48.8401 27.229 48.9603C27.1081 49.0804 26.9645 49.1404 26.7982 49.1404H22.3541ZM27.4104 39.9512H29.0656C29.4133 39.9512 29.6702 39.8386 29.8365 39.6134C30.0179 39.3731 30.1086 39.1029 30.1086 38.8026C30.1086 38.5023 30.0255 38.2245 29.8592 37.9692C29.708 37.699 29.4435 37.5638 29.0656 37.5638H27.4104V39.9512Z" fill="#121212"/>
<path d="M45.1594 49.3657C43.6781 49.3657 42.3781 49.1404 41.2595 48.69C40.1561 48.2395 39.2793 47.5639 38.6294 46.663C37.9945 45.747 37.6468 44.6209 37.5864 43.2846C37.5712 42.6689 37.5637 42.0158 37.5637 41.3251C37.5637 40.6344 37.5712 39.9662 37.5864 39.3206C37.6468 37.9993 37.9945 36.8806 38.6294 35.9647C39.2642 35.0488 40.1409 34.3506 41.2595 33.8701C42.3781 33.3897 43.6781 33.1494 45.1594 33.1494C46.6408 33.1494 47.9407 33.3897 49.0593 33.8701C50.1779 34.3506 51.0546 35.0488 51.6895 35.9647C52.3395 36.8806 52.6871 37.9993 52.7325 39.3206C52.7627 39.9662 52.7778 40.6344 52.7778 41.3251C52.7778 42.0158 52.7627 42.6689 52.7325 43.2846C52.672 44.6209 52.3168 45.747 51.6668 46.663C51.0319 47.5639 50.1552 48.2395 49.0366 48.69C47.9332 49.1404 46.6408 49.3657 45.1594 49.3657ZM45.1594 44.9738C45.6582 44.9738 46.0588 44.8311 46.3611 44.5458C46.6634 44.2455 46.8222 43.7801 46.8373 43.1494C46.8675 42.5038 46.8826 41.8656 46.8826 41.235C46.8826 40.6044 46.8675 39.9813 46.8373 39.3656C46.8222 38.9452 46.739 38.5999 46.5879 38.3296C46.4518 38.0593 46.2629 37.8641 46.021 37.744C45.7792 37.6089 45.492 37.5413 45.1594 37.5413C44.842 37.5413 44.5548 37.6089 44.2978 37.744C44.056 37.8641 43.8594 38.0593 43.7083 38.3296C43.5722 38.5999 43.4967 38.9452 43.4816 39.3656C43.4664 39.9813 43.4589 40.6044 43.4589 41.235C43.4589 41.8656 43.4664 42.5038 43.4816 43.1494C43.5118 43.7801 43.6705 44.2455 43.9577 44.5458C44.26 44.8311 44.6606 44.9738 45.1594 44.9738Z" fill="#121212"/>
<path d="M55.4349 49.1404C55.2686 49.1404 55.125 49.0804 55.0041 48.9603C54.8832 48.8401 54.8227 48.6975 54.8227 48.5323V33.9827C54.8227 33.8176 54.8832 33.6749 55.0041 33.5548C55.125 33.4347 55.2686 33.3746 55.4349 33.3746H62.3051C63.6806 33.3746 64.8748 33.5773 65.8876 33.9827C66.9154 34.3731 67.709 34.9812 68.2683 35.8071C68.8427 36.6179 69.1299 37.6464 69.1299 38.8927C69.1299 40.1389 68.8427 41.1599 68.2683 41.9557C67.709 42.7365 66.9154 43.3146 65.8876 43.69C64.8748 44.0503 63.6806 44.2305 62.3051 44.2305H60.7179V48.5323C60.7179 48.6975 60.6575 48.8401 60.5365 48.9603C60.4156 49.0804 60.272 49.1404 60.1057 49.1404H55.4349ZM60.6045 40.0638H62.1917C62.4336 40.0638 62.6679 39.9737 62.8946 39.7936C63.1213 39.5984 63.2347 39.2831 63.2347 38.8476C63.2347 38.5623 63.1591 38.2771 63.008 37.9918C62.8719 37.7065 62.5998 37.5638 62.1917 37.5638H60.6045V40.0638Z" fill="#121212"/>
<path d="M77.4303 49.3657C75.7524 49.3657 74.3693 49.1404 73.281 48.69C72.1926 48.2395 71.3764 47.6464 70.8322 46.9107C70.288 46.175 70.0008 45.3942 69.9706 44.5684C69.9706 44.4332 70.016 44.3206 70.1067 44.2305C70.2125 44.1254 70.3334 44.0729 70.4694 44.0729H74.7775C75.0193 44.0729 75.2007 44.1104 75.3216 44.1855C75.4577 44.2455 75.6013 44.3356 75.7524 44.4557C75.9036 44.5608 76.0548 44.6584 76.2059 44.7485C76.3722 44.8236 76.5536 44.8837 76.7501 44.9287C76.9617 44.9587 77.1884 44.9738 77.4303 44.9738C77.9442 44.9738 78.3524 44.9212 78.6547 44.8161C78.9721 44.696 79.1308 44.5383 79.1308 44.3431C79.1308 44.1629 79.0401 44.0128 78.8587 43.8927C78.6925 43.7726 78.3977 43.6674 77.9745 43.5774C77.5512 43.4723 76.9617 43.3747 76.2059 43.2846C75.0118 43.1194 73.9763 42.8416 73.0996 42.4512C72.2229 42.0608 71.5427 41.5278 71.059 40.8521C70.5904 40.1614 70.3561 39.3206 70.3561 38.3296C70.3561 37.3086 70.6433 36.4077 71.2177 35.6269C71.8072 34.8461 72.6159 34.238 73.6438 33.8026C74.6868 33.3671 75.896 33.1494 77.2716 33.1494C78.4053 33.1494 79.4105 33.2996 80.2872 33.5999C81.1639 33.8852 81.9046 34.268 82.5092 34.7485C83.1139 35.214 83.5749 35.717 83.8923 36.2575C84.2098 36.7981 84.3761 37.3161 84.3912 37.8116C84.3912 37.9467 84.3383 38.0668 84.2324 38.1719C84.1418 38.262 84.0359 38.3071 83.915 38.3071H79.3802C79.1686 38.3071 78.9948 38.2771 78.8587 38.217C78.7378 38.1569 78.6093 38.0668 78.4733 37.9467C78.3977 37.8716 78.2541 37.7891 78.0425 37.699C77.846 37.5939 77.589 37.5413 77.2716 37.5413C76.8937 37.5413 76.614 37.6014 76.4326 37.7215C76.2664 37.8266 76.1832 37.9767 76.1832 38.1719C76.1832 38.3071 76.2513 38.4347 76.3873 38.5548C76.5233 38.6749 76.7728 38.7801 77.1355 38.8701C77.4983 38.9602 78.0198 39.0503 78.7 39.1404C80.2116 39.3206 81.4209 39.6134 82.3279 40.0188C83.2499 40.4092 83.915 40.9347 84.3231 41.5954C84.7464 42.256 84.958 43.0744 84.958 44.0503C84.958 45.1464 84.6255 46.0924 83.9604 46.8882C83.3104 47.684 82.4185 48.2996 81.2849 48.735C80.1512 49.1554 78.8663 49.3657 77.4303 49.3657Z" fill="#121212"/>
<path d="M19.3887 71.8282C17.9376 71.8282 16.6527 71.618 15.5342 71.1975C14.4156 70.7771 13.5238 70.1164 12.8587 69.2155C12.2087 68.3146 11.8534 67.151 11.793 65.7245C11.7779 65.1089 11.7703 64.4483 11.7703 63.7426C11.7703 63.0369 11.7779 62.3612 11.793 61.7155C11.8534 60.3191 12.2162 59.1705 12.8813 58.2696C13.5615 57.3687 14.4609 56.7005 15.5795 56.2651C16.7132 55.8296 17.9829 55.6119 19.3887 55.6119C20.3561 55.6119 21.2858 55.7245 22.1776 55.9498C23.0846 56.16 23.9008 56.4978 24.6264 56.9633C25.3519 57.4287 25.9263 58.0293 26.3496 58.7651C26.7879 59.4858 27.0147 60.3567 27.0298 61.3777C27.0298 61.5128 26.9769 61.6329 26.8711 61.7381C26.7804 61.8281 26.667 61.8732 26.531 61.8732H21.9055C21.6637 61.8732 21.4823 61.8281 21.3613 61.7381C21.2555 61.6329 21.1573 61.4603 21.0666 61.22C20.9003 60.7396 20.6736 60.4167 20.3864 60.2516C20.0992 60.0864 19.7591 60.0038 19.366 60.0038C18.8672 60.0038 18.4666 60.1389 18.1643 60.4092C17.8771 60.6645 17.7184 61.1375 17.6882 61.8281C17.6428 63.0594 17.6428 64.3206 17.6882 65.6119C17.7184 66.3026 17.8771 66.7831 18.1643 67.0534C18.4666 67.3086 18.8672 67.4363 19.366 67.4363C19.7591 67.4363 20.0992 67.3462 20.3864 67.166C20.6887 66.9858 20.9154 66.6705 21.0666 66.22C21.1422 65.9648 21.2404 65.7921 21.3613 65.702C21.4823 65.6119 21.6637 65.5669 21.9055 65.5669H26.531C26.667 65.5669 26.7804 65.6194 26.8711 65.7245C26.9769 65.8146 27.0298 65.9272 27.0298 66.0624C27.0147 67.0834 26.7879 67.9618 26.3496 68.6975C25.9263 69.4182 25.3519 70.0113 24.6264 70.4768C23.9008 70.9423 23.0846 71.2876 22.1776 71.5128C21.2858 71.7231 20.3561 71.8282 19.3887 71.8282Z" fill="#121212"/>
<path d="M27.8383 71.6029C27.7022 71.6029 27.5813 71.5579 27.4755 71.4678C27.3848 71.3627 27.3394 71.2426 27.3394 71.1074C27.3394 71.0474 27.347 70.9948 27.3621 70.9498L32.4184 56.5804C32.4637 56.4152 32.5695 56.2501 32.7358 56.0849C32.9021 55.9197 33.1364 55.8371 33.4387 55.8371H38.3589C38.6612 55.8371 38.8955 55.9197 39.0618 56.0849C39.2281 56.2501 39.3339 56.4152 39.3792 56.5804L44.4355 70.9498C44.4506 70.9948 44.4582 71.0474 44.4582 71.1074C44.4582 71.2426 44.4053 71.3627 44.2995 71.4678C44.2088 71.5579 44.0954 71.6029 43.9594 71.6029H39.7647C39.4775 71.6029 39.2659 71.5429 39.1298 71.4228C39.0089 71.2876 38.9258 71.16 38.8804 71.0399L38.3362 69.5534H33.4614L32.9172 71.0399C32.8719 71.16 32.7887 71.2876 32.6678 71.4228C32.5469 71.5429 32.3352 71.6029 32.0329 71.6029H27.8383ZM34.6177 65.1615H37.1799L35.8875 60.9723L34.6177 65.1615Z" fill="#121212"/>
<path d="M46.3148 71.6029C46.1485 71.6029 46.0049 71.5429 45.884 71.4228C45.763 71.3026 45.7026 71.16 45.7026 70.9948V56.4452C45.7026 56.2801 45.763 56.1374 45.884 56.0173C46.0049 55.8972 46.1485 55.8371 46.3148 55.8371H53.0262C55.2029 55.8371 56.9035 56.3251 58.1278 57.3011C59.3522 58.2771 59.9644 59.6134 59.9644 61.3101C59.9644 62.3161 59.7301 63.1945 59.2615 63.9453C58.8081 64.681 58.2261 65.2741 57.5156 65.7245L60.3045 70.8597C60.3499 70.9498 60.3726 71.0324 60.3726 71.1074C60.3726 71.2426 60.3196 71.3627 60.2138 71.4678C60.1231 71.5579 60.0098 71.6029 59.8737 71.6029H55.2256C54.9233 71.6029 54.6965 71.5279 54.5454 71.3777C54.3942 71.2276 54.296 71.0999 54.2506 70.9948L52.3007 66.693H51.371V70.9948C51.371 71.16 51.3106 71.3026 51.1897 71.4228C51.0687 71.5429 50.9251 71.6029 50.7588 71.6029H46.3148ZM51.371 62.4137H53.0262C53.3739 62.4137 53.6309 62.3011 53.7971 62.0759C53.9785 61.8356 54.0692 61.5654 54.0692 61.2651C54.0692 60.9648 53.9861 60.687 53.8198 60.4317C53.6687 60.1615 53.4041 60.0263 53.0262 60.0263H51.371V62.4137Z" fill="#121212"/>
<path d="M62.678 71.6029C62.5117 71.6029 62.3681 71.5429 62.2472 71.4228C62.1263 71.3026 62.0658 71.16 62.0658 70.9948V56.4452C62.0658 56.2801 62.1263 56.1374 62.2472 56.0173C62.3681 55.8972 62.5117 55.8371 62.678 55.8371H74.3097C74.476 55.8371 74.6196 55.8972 74.7405 56.0173C74.8614 56.1374 74.9219 56.2801 74.9219 56.4452V59.6209C74.9219 59.7861 74.8614 59.9287 74.7405 60.0489C74.6196 60.169 74.476 60.229 74.3097 60.229H67.5075V61.648H73.8109C73.9771 61.648 74.1207 61.708 74.2417 61.8281C74.3626 61.9483 74.4231 62.0909 74.4231 62.2561V65.184C74.4231 65.3492 74.3626 65.4918 74.2417 65.6119C74.1207 65.7321 73.9771 65.7921 73.8109 65.7921H67.5075V67.211H74.4911C74.6574 67.211 74.801 67.2711 74.9219 67.3912C75.0428 67.5113 75.1033 67.654 75.1033 67.8191V70.9948C75.1033 71.16 75.0428 71.3026 74.9219 71.4228C74.801 71.5429 74.6574 71.6029 74.4911 71.6029H62.678Z" fill="#121212"/>
</svg>
