<svg width="133" height="75" viewBox="0 0 133 75" fill="none" xmlns="http://www.w3.org/2000/svg">
<path d="M98.4646 27.2894L127.5 57V75.5H-1V2L30.0813 36.8802C37.6649 45.3906 50.817 45.8513 58.9775 37.8924L70.1966 26.9502C78.0985 19.2435 90.7499 19.3953 98.4646 27.2894Z" fill="url(#paint0_linear_4301_5045)"/>
<path d="M121.667 56.5C121.667 59.4455 124.054 61.8333 127 61.8333C129.946 61.8333 132.333 59.4455 132.333 56.5C132.333 53.5545 129.946 51.1667 127 51.1667C124.054 51.1667 121.667 53.5545 121.667 56.5ZM-0.753407 0.834719C-1.12083 0.422387 -1.75295 0.385982 -2.16528 0.753407C-2.57761 1.12083 -2.61402 1.75295 -2.24659 2.16528L-0.753407 0.834719ZM127.715 55.8011L98.6798 26.0904L97.2494 27.4883L126.285 57.1989L127.715 55.8011ZM68.9984 25.7343L57.7792 36.6765L59.1757 38.1082L70.3948 27.1661L68.9984 25.7343ZM30.3279 35.7149L-0.753407 0.834719L-2.24659 2.16528L28.8347 37.0454L30.3279 35.7149ZM57.7792 36.6765C50.0268 44.2375 37.5323 43.7998 30.3279 35.7149L28.8347 37.0454C36.7975 45.9814 50.6072 46.4652 59.1757 38.1082L57.7792 36.6765ZM98.6798 26.0904C90.5794 17.8016 77.2954 17.6422 68.9984 25.7343L70.3948 27.1661C77.9016 19.8447 89.9204 19.9889 97.2494 27.4883L98.6798 26.0904Z" fill="#FF8093"/>
<defs>
<linearGradient id="paint0_linear_4301_5045" x1="20" y1="2.5" x2="86" y2="80" gradientUnits="userSpaceOnUse">
<stop stop-color="#FF9AA9"/>
<stop offset="1" stop-color="#FFCCD4"/>
</linearGradient>
</defs>
</svg>
