<svg width="105" height="47" viewBox="0 0 105 47" fill="none" xmlns="http://www.w3.org/2000/svg">
<path fill-rule="evenodd" clip-rule="evenodd" d="M90 36C98.2843 36 105 29.2843 105 21C105 12.7157 98.2843 6 90 6C81.7157 6 75 12.7157 75 21C75 29.2843 81.7157 36 90 36ZM86 19C87.1046 19 88 18.1046 88 17C88 15.8954 87.1046 15 86 15C84.8954 15 84 15.8954 84 17C84 18.1046 84.8954 19 86 19ZM96 17C96 18.1046 95.1046 19 94 19C92.8954 19 92 18.1046 92 17C92 15.8954 92.8954 15 94 15C95.1046 15 96 15.8954 96 17ZM85.9029 23.5701C85.6654 23.0714 85.0687 22.8597 84.5701 23.0971C84.0714 23.3346 83.8597 23.9313 84.0971 24.4299C84.4174 25.1024 85.1194 25.9757 86.0894 26.683C87.076 27.4024 88.4085 28 90 28C93.1927 28 95.1528 25.625 95.8442 24.536C96.1402 24.0698 96.0023 23.4518 95.536 23.1558C95.0698 22.8598 94.4518 22.9977 94.1558 23.464C93.5774 24.375 92.1407 26 90 26C88.9248 26 87.9955 25.5976 87.2677 25.067C86.5235 24.5243 86.0588 23.8976 85.9029 23.5701Z" fill="#E286F9"/>
<path d="M-9 25L15.7634 5.95124C20.0662 2.64141 26.2238 3.36887 29.6368 7.59025L49.0251 31.5705C55.9308 40.1117 68.4323 41.4857 77.0281 34.6481L83.5 29.5" stroke="#E286F9" stroke-width="2" stroke-linecap="round"/>
</svg>
