<svg width="18" height="20" viewBox="0 0 18 20" fill="none" xmlns="http://www.w3.org/2000/svg">
<path fill-rule="evenodd" clip-rule="evenodd" d="M8.99894 0C7.61822 0 6.49892 1.11929 6.49892 2.50001C6.49892 3.90847 4.97411 4.7887 3.75434 4.08447C2.55861 3.39411 1.02962 3.8038 0.339264 4.99953C-0.351096 6.19527 0.0585877 7.72424 1.25432 8.41459C2.47408 9.11881 2.47443 10.8796 1.25468 11.5838C0.0589412 12.2741 -0.350747 13.8031 0.339614 14.9989C1.02997 16.1946 2.55895 16.6043 3.75469 15.9139C4.97435 15.2098 6.49892 16.0917 6.49892 17.5C6.49892 18.8807 7.61822 20 8.99894 20C10.3797 20 11.499 18.8807 11.499 17.5C11.499 16.0908 13.0244 15.21 14.2448 15.9146C15.4405 16.605 16.9695 16.1953 17.6599 14.9995C18.3502 13.8038 17.9406 12.2748 16.7448 11.5845C15.5245 10.88 15.5249 9.11844 16.7452 8.41391C17.9409 7.72356 18.3506 6.19459 17.6602 4.99885C16.9699 3.80312 15.4409 3.39343 14.2452 4.08379C13.0253 4.78807 11.499 3.90858 11.499 2.50001C11.499 1.11929 10.3797 0 8.99894 0ZM8.99926 12.5C10.38 12.5 11.4993 11.3808 11.4993 10C11.4993 8.61933 10.38 7.50004 8.99926 7.50004C7.61854 7.50004 6.49924 8.61933 6.49924 10C6.49924 11.3808 7.61854 12.5 8.99926 12.5Z" fill="#121212" fill-opacity="0.6"/>
</svg>
