<svg width="32" height="32" viewBox="0 0 32 32" fill="none" xmlns="http://www.w3.org/2000/svg">
<path fill-rule="evenodd" clip-rule="evenodd" d="M13.2929 7.29289C13.4804 7.10536 13.7348 7 14 7H18C18.2652 7 18.5196 7.10536 18.7071 7.29289C18.8946 7.48043 19 7.73478 19 8V9H13V8C13 7.73478 13.1054 7.48043 13.2929 7.29289ZM11 9V8C11 7.20435 11.3161 6.44129 11.8787 5.87868C12.4413 5.31607 13.2044 5 14 5H18C18.7956 5 19.5587 5.31607 20.1213 5.87868C20.6839 6.44129 21 7.20435 21 8V9H23H25C25.5523 9 26 9.44772 26 10C26 10.5523 25.5523 11 25 11H24V24C24 24.7957 23.6839 25.5587 23.1213 26.1213C22.5587 26.6839 21.7957 27 21 27H11C10.2043 27 9.44129 26.6839 8.87868 26.1213C8.31607 25.5587 8 24.7957 8 24V11H7C6.44772 11 6 10.5523 6 10C6 9.44772 6.44772 9 7 9H9H11ZM10 11H12H20H22V24C22 24.2652 21.8946 24.5196 21.7071 24.7071C21.5196 24.8946 21.2652 25 21 25H11C10.7348 25 10.4804 24.8946 10.2929 24.7071C10.1054 24.5196 10 24.2652 10 24V11Z" fill="#121212" fill-opacity="0.3"/>
</svg>
