<svg width="88" height="113" viewBox="0 0 88 113" fill="none" xmlns="http://www.w3.org/2000/svg">
<path d="M35.0205 21.723C35.4392 21.723 35.8335 21.5272 36.0847 21.1944L43.9162 10.8221L51.7478 21.1944C51.999 21.5272 52.3932 21.723 52.8119 21.723H57.0519C57.6 21.723 57.9129 21.1014 57.584 20.6659L45.6513 4.86173C44.7837 3.71276 43.0487 3.71276 42.1812 4.86173L30.2484 20.6659C29.9196 21.1014 30.2325 21.723 30.7805 21.723H35.0205Z" fill="#121212"/>
<path d="M11.9792 82.6547C11.7611 82.1662 11.2781 81.8432 10.7401 81.8432H8.17149C7.25175 81.8432 6.61076 82.7482 6.95957 83.5936C12.7216 97.558 26.2919 108.27 43.9162 108.27C61.5405 108.27 75.1109 97.558 80.8729 83.5936C81.2217 82.7482 80.5807 81.8432 79.661 81.8432H77.0924C76.5543 81.8432 76.0713 82.1662 75.8532 82.6547C70.602 94.4152 58.9431 103.315 43.9162 103.315C28.8893 103.315 17.2304 94.4152 11.9792 82.6547Z" fill="#121212"/>
<path d="M4.61219 49.1404C4.44592 49.1404 4.30232 49.0804 4.18139 48.9603C4.06046 48.8401 4 48.6975 4 48.5323V33.9827C4 33.8176 4.06046 33.6749 4.18139 33.5548C4.30232 33.4347 4.44592 33.3746 4.61219 33.3746H11.1423C12.5631 33.3746 13.8329 33.6149 14.9515 34.0954C16.07 34.5608 16.9619 35.2515 17.627 36.1674C18.3072 37.0834 18.67 38.217 18.7153 39.5683C18.7455 40.214 18.7607 40.7846 18.7607 41.2801C18.7607 41.7605 18.7455 42.3086 18.7153 42.9242C18.6549 44.3356 18.3072 45.5068 17.6723 46.4377C17.0375 47.3536 16.1683 48.0368 15.0648 48.4873C13.9765 48.9227 12.7068 49.1404 11.2556 49.1404H4.61219ZM9.66846 44.7485H11.1423C11.4748 44.7485 11.7696 44.6885 12.0265 44.5684C12.2986 44.4332 12.5178 44.2305 12.6841 43.9602C12.8504 43.69 12.941 43.3446 12.9562 42.9242C12.9864 42.4888 13.0015 42.0984 13.0015 41.753C13.0166 41.4077 13.0166 41.0623 13.0015 40.717C13.0015 40.3566 12.9864 39.9738 12.9562 39.5683C12.9259 38.9377 12.7219 38.4798 12.344 38.1945C11.9812 37.9092 11.5428 37.7665 11.0289 37.7665H9.66846V44.7485Z" fill="#121212"/>
<path d="M21.3961 49.1404C21.2299 49.1404 21.0863 49.0804 20.9653 48.9603C20.8444 48.8401 20.7839 48.6975 20.7839 48.5323V33.9827C20.7839 33.8176 20.8444 33.6749 20.9653 33.5548C21.0863 33.4347 21.2299 33.3746 21.3961 33.3746H28.1076C30.2843 33.3746 31.9848 33.8626 33.2092 34.8386C34.4336 35.8146 35.0458 37.1509 35.0458 38.8476C35.0458 39.8536 34.8115 40.732 34.3429 41.4828C33.8894 42.2185 33.3075 42.8116 32.597 43.262L35.3859 48.3972C35.4312 48.4873 35.4539 48.5699 35.4539 48.6449C35.4539 48.7801 35.401 48.9002 35.2952 49.0053C35.2045 49.0954 35.0911 49.1404 34.9551 49.1404H30.307C30.0046 49.1404 29.7779 49.0654 29.6267 48.9152C29.4756 48.7651 29.3773 48.6374 29.332 48.5323L27.382 44.2305H26.4524V48.5323C26.4524 48.6975 26.3919 48.8401 26.271 48.9603C26.1501 49.0804 26.0065 49.1404 25.8402 49.1404H21.3961ZM26.4524 39.9512H28.1076C28.4553 39.9512 28.7122 39.8386 28.8785 39.6134C29.0599 39.3731 29.1506 39.1029 29.1506 38.8026C29.1506 38.5023 29.0675 38.2245 28.9012 37.9692C28.75 37.699 28.4855 37.5638 28.1076 37.5638H26.4524V39.9512Z" fill="#121212"/>
<path d="M44.2014 49.3657C42.7201 49.3657 41.4201 49.1404 40.3015 48.69C39.198 48.2395 38.3213 47.5639 37.6713 46.663C37.0365 45.747 36.6888 44.6209 36.6283 43.2846C36.6132 42.6689 36.6057 42.0158 36.6057 41.3251C36.6057 40.6344 36.6132 39.9662 36.6283 39.3206C36.6888 37.9993 37.0365 36.8806 37.6713 35.9647C38.3062 35.0488 39.1829 34.3506 40.3015 33.8701C41.4201 33.3897 42.7201 33.1494 44.2014 33.1494C45.6828 33.1494 46.9827 33.3897 48.1013 33.8701C49.2199 34.3506 50.0966 35.0488 50.7315 35.9647C51.3815 36.8806 51.7291 37.9993 51.7745 39.3206C51.8047 39.9662 51.8198 40.6344 51.8198 41.3251C51.8198 42.0158 51.8047 42.6689 51.7745 43.2846C51.714 44.6209 51.3588 45.747 50.7088 46.663C50.0739 47.5639 49.1972 48.2395 48.0786 48.69C46.9752 49.1404 45.6828 49.3657 44.2014 49.3657ZM44.2014 44.9738C44.7002 44.9738 45.1008 44.8311 45.4031 44.5458C45.7054 44.2455 45.8642 43.7801 45.8793 43.1494C45.9095 42.5038 45.9246 41.8656 45.9246 41.235C45.9246 40.6044 45.9095 39.9813 45.8793 39.3656C45.8642 38.9452 45.781 38.5999 45.6299 38.3296C45.4938 38.0593 45.3049 37.8641 45.063 37.744C44.8212 37.6089 44.534 37.5413 44.2014 37.5413C43.884 37.5413 43.5968 37.6089 43.3398 37.744C43.0979 37.8641 42.9014 38.0593 42.7503 38.3296C42.6142 38.5999 42.5387 38.9452 42.5235 39.3656C42.5084 39.9813 42.5009 40.6044 42.5009 41.235C42.5009 41.8656 42.5084 42.5038 42.5235 43.1494C42.5538 43.7801 42.7125 44.2455 42.9997 44.5458C43.302 44.8311 43.7026 44.9738 44.2014 44.9738Z" fill="#121212"/>
<path d="M54.4769 49.1404C54.3106 49.1404 54.167 49.0804 54.0461 48.9603C53.9252 48.8401 53.8647 48.6975 53.8647 48.5323V33.9827C53.8647 33.8176 53.9252 33.6749 54.0461 33.5548C54.167 33.4347 54.3106 33.3746 54.4769 33.3746H61.3471C62.7226 33.3746 63.9168 33.5773 64.9295 33.9827C65.9574 34.3731 66.751 34.9812 67.3103 35.8071C67.8847 36.6179 68.1719 37.6464 68.1719 38.8927C68.1719 40.1389 67.8847 41.1599 67.3103 41.9557C66.751 42.7365 65.9574 43.3146 64.9295 43.69C63.9168 44.0503 62.7226 44.2305 61.3471 44.2305H59.7599V48.5323C59.7599 48.6975 59.6994 48.8401 59.5785 48.9603C59.4576 49.0804 59.314 49.1404 59.1477 49.1404H54.4769ZM59.6465 40.0638H61.2337C61.4756 40.0638 61.7099 39.9737 61.9366 39.7936C62.1633 39.5984 62.2767 39.2831 62.2767 38.8476C62.2767 38.5623 62.2011 38.2771 62.05 37.9918C61.9139 37.7065 61.6418 37.5638 61.2337 37.5638H59.6465V40.0638Z" fill="#121212"/>
<path d="M76.4723 49.3657C74.7944 49.3657 73.4113 49.1404 72.323 48.69C71.2346 48.2395 70.4184 47.6464 69.8742 46.9107C69.33 46.175 69.0428 45.3942 69.0126 44.5684C69.0126 44.4332 69.058 44.3206 69.1486 44.2305C69.2545 44.1254 69.3754 44.0729 69.5114 44.0729H73.8195C74.0613 44.0729 74.2427 44.1104 74.3636 44.1855C74.4997 44.2455 74.6433 44.3356 74.7944 44.4557C74.9456 44.5608 75.0967 44.6584 75.2479 44.7485C75.4142 44.8236 75.5956 44.8837 75.7921 44.9287C76.0037 44.9587 76.2304 44.9738 76.4723 44.9738C76.9862 44.9738 77.3944 44.9212 77.6967 44.8161C78.0141 44.696 78.1728 44.5383 78.1728 44.3431C78.1728 44.1629 78.0821 44.0128 77.9007 43.8927C77.7345 43.7726 77.4397 43.6674 77.0165 43.5774C76.5932 43.4723 76.0037 43.3747 75.2479 43.2846C74.0537 43.1194 73.0183 42.8416 72.1416 42.4512C71.2649 42.0608 70.5847 41.5278 70.1009 40.8521C69.6324 40.1614 69.3981 39.3206 69.3981 38.3296C69.3981 37.3086 69.6853 36.4077 70.2597 35.6269C70.8492 34.8461 71.6579 34.238 72.6858 33.8026C73.7288 33.3671 74.938 33.1494 76.3136 33.1494C77.4473 33.1494 78.4525 33.2996 79.3292 33.5999C80.2059 33.8852 80.9466 34.268 81.5512 34.7485C82.1559 35.214 82.6169 35.717 82.9343 36.2575C83.2518 36.7981 83.418 37.3161 83.4332 37.8116C83.4332 37.9467 83.3802 38.0668 83.2744 38.1719C83.1837 38.262 83.0779 38.3071 82.957 38.3071H78.4222C78.2106 38.3071 78.0368 38.2771 77.9007 38.217C77.7798 38.1569 77.6513 38.0668 77.5153 37.9467C77.4397 37.8716 77.2961 37.7891 77.0845 37.699C76.888 37.5939 76.631 37.5413 76.3136 37.5413C75.9357 37.5413 75.656 37.6014 75.4746 37.7215C75.3084 37.8266 75.2252 37.9767 75.2252 38.1719C75.2252 38.3071 75.2933 38.4347 75.4293 38.5548C75.5653 38.6749 75.8147 38.7801 76.1775 38.8701C76.5403 38.9602 77.0618 39.0503 77.742 39.1404C79.2536 39.3206 80.4629 39.6134 81.3698 40.0188C82.2919 40.4092 82.957 40.9347 83.3651 41.5954C83.7884 42.256 84 43.0744 84 44.0503C84 45.1464 83.6674 46.0924 83.0024 46.8882C82.3524 47.684 81.4605 48.2996 80.3268 48.735C79.1932 49.1554 77.9083 49.3657 76.4723 49.3657Z" fill="#121212"/>
<path d="M18.4307 71.8282C16.9796 71.8282 15.6947 71.618 14.5762 71.1975C13.4576 70.7771 12.5657 70.1164 11.9006 69.2155C11.2507 68.3146 10.8954 67.151 10.835 65.7245C10.8199 65.1089 10.8123 64.4483 10.8123 63.7426C10.8123 63.0369 10.8199 62.3612 10.835 61.7155C10.8954 60.3191 11.2582 59.1705 11.9233 58.2696C12.6035 57.3687 13.5029 56.7005 14.6215 56.2651C15.7552 55.8296 17.0249 55.6119 18.4307 55.6119C19.3981 55.6119 20.3278 55.7245 21.2196 55.9498C22.1265 56.16 22.9428 56.4978 23.6684 56.9633C24.3939 57.4287 24.9683 58.0293 25.3916 58.7651C25.8299 59.4858 26.0567 60.3567 26.0718 61.3777C26.0718 61.5128 26.0189 61.6329 25.9131 61.7381C25.8224 61.8281 25.709 61.8732 25.573 61.8732H20.9475C20.7057 61.8732 20.5243 61.8281 20.4033 61.7381C20.2975 61.6329 20.1993 61.4603 20.1086 61.22C19.9423 60.7396 19.7156 60.4167 19.4284 60.2516C19.1412 60.0864 18.801 60.0038 18.408 60.0038C17.9092 60.0038 17.5086 60.1389 17.2063 60.4092C16.9191 60.6645 16.7604 61.1375 16.7302 61.8281C16.6848 63.0594 16.6848 64.3206 16.7302 65.6119C16.7604 66.3026 16.9191 66.7831 17.2063 67.0534C17.5086 67.3086 17.9092 67.4363 18.408 67.4363C18.801 67.4363 19.1412 67.3462 19.4284 67.166C19.7307 66.9858 19.9574 66.6705 20.1086 66.22C20.1842 65.9648 20.2824 65.7921 20.4033 65.702C20.5243 65.6119 20.7057 65.5669 20.9475 65.5669H25.573C25.709 65.5669 25.8224 65.6194 25.9131 65.7245C26.0189 65.8146 26.0718 65.9272 26.0718 66.0624C26.0567 67.0834 25.8299 67.9618 25.3916 68.6975C24.9683 69.4182 24.3939 70.0113 23.6684 70.4768C22.9428 70.9423 22.1265 71.2876 21.2196 71.5128C20.3278 71.7231 19.3981 71.8282 18.4307 71.8282Z" fill="#121212"/>
<path d="M26.8803 71.6029C26.7442 71.6029 26.6233 71.5579 26.5175 71.4678C26.4268 71.3627 26.3814 71.2426 26.3814 71.1074C26.3814 71.0474 26.389 70.9948 26.4041 70.9498L31.4604 56.5804C31.5057 56.4152 31.6115 56.2501 31.7778 56.0849C31.9441 55.9197 32.1784 55.8371 32.4807 55.8371H37.4009C37.7032 55.8371 37.9375 55.9197 38.1038 56.0849C38.2701 56.2501 38.3759 56.4152 38.4212 56.5804L43.4775 70.9498C43.4926 70.9948 43.5002 71.0474 43.5002 71.1074C43.5002 71.2426 43.4473 71.3627 43.3415 71.4678C43.2508 71.5579 43.1374 71.6029 43.0013 71.6029H38.8067C38.5195 71.6029 38.3079 71.5429 38.1718 71.4228C38.0509 71.2876 37.9678 71.16 37.9224 71.0399L37.3782 69.5534H32.5034L31.9592 71.0399C31.9138 71.16 31.8307 71.2876 31.7098 71.4228C31.5889 71.5429 31.3772 71.6029 31.0749 71.6029H26.8803ZM33.6597 65.1615H36.2219L34.9295 60.9723L33.6597 65.1615Z" fill="#121212"/>
<path d="M45.3568 71.6029C45.1905 71.6029 45.0469 71.5429 44.926 71.4228C44.805 71.3026 44.7446 71.16 44.7446 70.9948V56.4452C44.7446 56.2801 44.805 56.1374 44.926 56.0173C45.0469 55.8972 45.1905 55.8371 45.3568 55.8371H52.0682C54.2449 55.8371 55.9454 56.3251 57.1698 57.3011C58.3942 58.2771 59.0064 59.6134 59.0064 61.3101C59.0064 62.3161 58.7721 63.1945 58.3035 63.9453C57.85 64.681 57.2681 65.2741 56.5576 65.7245L59.3465 70.8597C59.3919 70.9498 59.4145 71.0324 59.4145 71.1074C59.4145 71.2426 59.3616 71.3627 59.2558 71.4678C59.1651 71.5579 59.0518 71.6029 58.9157 71.6029H54.2676C53.9653 71.6029 53.7385 71.5279 53.5874 71.3777C53.4362 71.2276 53.338 71.0999 53.2926 70.9948L51.3427 66.693H50.413V70.9948C50.413 71.16 50.3526 71.3026 50.2316 71.4228C50.1107 71.5429 49.9671 71.6029 49.8008 71.6029H45.3568ZM50.413 62.4137H52.0682C52.4159 62.4137 52.6729 62.3011 52.8391 62.0759C53.0205 61.8356 53.1112 61.5654 53.1112 61.2651C53.1112 60.9648 53.0281 60.687 52.8618 60.4317C52.7106 60.1615 52.4461 60.0263 52.0682 60.0263H50.413V62.4137Z" fill="#121212"/>
<path d="M61.72 71.6029C61.5537 71.6029 61.4101 71.5429 61.2892 71.4228C61.1683 71.3026 61.1078 71.16 61.1078 70.9948V56.4452C61.1078 56.2801 61.1683 56.1374 61.2892 56.0173C61.4101 55.8972 61.5537 55.8371 61.72 55.8371H73.3517C73.518 55.8371 73.6616 55.8972 73.7825 56.0173C73.9034 56.1374 73.9639 56.2801 73.9639 56.4452V59.6209C73.9639 59.7861 73.9034 59.9287 73.7825 60.0489C73.6616 60.169 73.518 60.229 73.3517 60.229H66.5495V61.648H72.8529C73.0191 61.648 73.1627 61.708 73.2837 61.8281C73.4046 61.9483 73.4651 62.0909 73.4651 62.2561V65.184C73.4651 65.3492 73.4046 65.4918 73.2837 65.6119C73.1627 65.7321 73.0191 65.7921 72.8529 65.7921H66.5495V67.211H73.5331C73.6993 67.211 73.8429 67.2711 73.9639 67.3912C74.0848 67.5113 74.1453 67.654 74.1453 67.8191V70.9948C74.1453 71.16 74.0848 71.3026 73.9639 71.4228C73.8429 71.5429 73.6993 71.6029 73.5331 71.6029H61.72Z" fill="#121212"/>
</svg>
